<?xml version="1.0" encoding="utf-8"?>
<!-- Generator: Adobe Illustrator 15.0.0, SVG Export Plug-In . SVG Version: 6.00 Build 0)  -->
<!DOCTYPE svg PUBLIC "-//W3C//DTD SVG 1.1//EN" "http://www.w3.org/Graphics/SVG/1.1/DTD/svg11.dtd">
<svg version="1.1" id="Layer_1" xmlns="http://www.w3.org/2000/svg" xmlns:xlink="http://www.w3.org/1999/xlink" x="0px" y="0px"
	 width="200px" height="50px" viewBox="0 0 841.89 183.902" enable-background="new 0 0 841.89 183.902"
	 xml:space="preserve">
<g>
	<polygon fill="#19437A" points="282.694,41.346 249.662,41.346 249.662,14.734 236.999,14.734 236.999,79.242 249.662,79.242 
		249.662,52.54 282.694,52.54 282.694,79.242 295.357,79.242 295.357,14.734 282.694,14.734 	"/>
	<rect x="308.578" y="14.736" fill="#19437A" width="12.663" height="64.507"/>
	<polygon fill="#19437A" points="380.061,57.128 341.707,14.094 334.549,14.094 334.549,79.242 346.935,79.242 346.935,36.849 
		385.381,79.977 392.54,79.977 392.54,14.735 380.061,14.735 	"/>
	<path fill="#19437A" d="M430.627,14.735H405.76v64.508h24.867c20.371,0,33.859-12.938,33.859-32.3
		C464.486,27.582,450.998,14.735,430.627,14.735 M430.076,68.048h-11.655V25.929h11.655c13.488,0,21.562,8.441,21.562,21.198
		C451.639,59.699,443.564,68.048,430.076,68.048"/>
	<path fill="#19437A" d="M517.345,52.541c0,8.716-5.141,16.056-15.692,16.056c-10.644,0-15.782-7.34-15.782-16.056V14.735h-12.66
		v36.797c0,18.627,11.284,28.536,28.352,28.536c17.068,0,28.353-9.908,28.353-28.536V14.735h-12.569V52.541z"/>
	<path fill="#19437A" d="M556.53,56.485c0,7.066-3.945,11.195-10.825,11.195c-3.671,0-7.249-0.826-8.719-1.834l-4.77,10.642
		c0.825,0.552,5.32,3.58,14.496,3.58c14.133,0,22.573-8.899,22.573-23.215V14.736H556.53V56.485z"/>
	<path fill="#19437A" d="M609.113,14.735h-8.35L572.5,79.243h13.397l5.139-12.48h27.62l5.137,12.48h13.398L609.113,14.735z
		 M595.074,56.027l9.817-23.306l9.729,23.306H595.074z"/>
	<polygon fill="#18A68A" points="396.486,152.868 355.656,104.511 350.059,104.511 350.059,169.661 359.325,169.661 
		359.325,122.038 400.341,170.394 405.847,170.394 405.847,105.155 396.486,105.155 	"/>
	<polygon fill="#18A68A" points="429.34,141.215 458.703,141.215 458.703,132.772 429.34,132.772 429.34,113.595 462.832,113.595 
		462.832,105.153 419.889,105.153 419.889,169.66 462.923,169.66 462.923,161.312 429.34,161.312 	"/>
	<polygon fill="#18A68A" points="544.309,105.153 538.162,127.817 530.73,155.713 522.195,128.644 514.12,105.153 507.605,105.153 
		499.624,128.644 491.272,155.713 484.024,127.817 477.969,105.153 467.965,105.153 487.327,169.661 494.301,169.661 
		510.727,119.743 527.334,169.661 534.401,169.661 553.762,105.153 	"/>
	<path fill="#18A68A" d="M575.347,105.153l-27.713,64.507h10.001l5.597-13.582h31.014l5.509,13.582h10.093l-27.531-64.507H575.347z
		 M566.443,147.914l12.297-29.548l12.204,29.548H566.443z"/>
	<path fill="#18A68A" d="M652.886,136.26c5.413-2.385,9.451-7.524,9.451-14.13c0-9.817-6.884-16.977-23.396-16.977h-22.482v64.507
		h24.409c15.599,0,23.489-6.973,23.489-18.443C664.356,144.427,660.045,138.554,652.886,136.26 M625.727,113.23h13.029
		c9.817,0,14.13,4.128,14.13,10.366c0,5.874-4.402,9.453-12.203,9.453h-14.956V113.23z M640.683,161.585h-14.956V140.94h15.322
		c9.726,0,13.855,4.404,13.855,9.726C654.904,157.457,649.767,161.585,640.683,161.585"/>
	<polygon fill="#18A68A" points="684.822,105.153 675.373,105.153 675.373,169.661 718.131,169.661 718.131,161.309 
		684.822,161.309 	"/>
	<polygon fill="#18A68A" points="734.652,141.215 764.016,141.215 764.016,132.772 734.652,132.772 734.652,113.595 
		768.145,113.595 768.145,105.153 725.2,105.153 725.2,169.66 768.234,169.66 768.234,161.312 734.652,161.312 	"/>
	<path fill="#18A68A" d="M801.641,131.946c-9.175-2.384-13.858-4.587-13.858-10.277c0-5.778,5.05-8.991,12.3-8.991
		c7.062,0,11.562,1.743,16.057,5.047l4.497-7.156c-4.59-3.761-11.013-6.241-20.554-6.241c-12.757,0-21.84,7.343-21.84,17.802
		c0,10.646,7.616,15.234,19.453,18.26c10.462,2.571,14.496,5.688,14.496,11.836c0,6.424-5.231,9.913-12.66,9.913
		c-7.065,0-13.765-2.387-18.994-6.519l-4.862,7.711c6.055,4.586,14.037,7.156,23.947,7.156c12.569,0,22.115-6.976,22.115-18.994
		C821.737,140.113,814.21,135.249,801.641,131.946"/>
	<polygon fill="#18A68A" points="305.458,113.596 338.95,113.596 338.95,105.153 296.007,105.153 296.007,169.661 339.039,169.661 
		339.039,161.311 305.458,161.311 	"/>
	<rect x="313.135" y="132.773" fill="#18A68A" width="21.688" height="8.441"/>
	<path fill="#18A68A" d="M284.256,127.635c0-14.589-10.369-22.479-25.417-22.479H237v8.354l21.288-0.005
		c9.36,0,16.149,4.771,16.149,14.131c0,8.35-6.515,13.763-16.609,13.763h-11.377v-18.438H237v18.467h-16.945v8.29H237v19.945h9.451
		v-19.913h11.562c1.101,0,2.112,0,3.118-0.093l13.675,20.006h11.377l-15.322-22.206
		C279.209,144.059,284.256,136.996,284.256,127.635"/>
	<path fill="#18A68A" d="M149.812,64.607c-0.277-2.347-0.679-4.674-1.25-6.961c-4.776-2.523-9.751-4.353-14.8-5.545
		c1.743,2.234,3.351,4.596,4.812,7.076C142.025,60.37,146.954,62.648,149.812,64.607"/>
	<path fill="#18A68A" d="M131.397,29.547c-7.251,0-14.561,1.286-21.603,3.885c2.293,1.049,4.535,2.222,6.703,3.538
		c6.776-1.825,13.73-2.378,20.539-1.708C135.296,33.229,133.423,31.312,131.397,29.547"/>
	<path fill="#18A68A" d="M89.122,16.321c-5.7,3.153-10.868,7.159-15.314,11.86c2.826-0.401,5.676-0.615,8.533-0.635
		c5.851-4.965,12.721-8.743,20.225-11.055C96.431,15.615,91.29,16.062,89.122,16.321"/>
	<path fill="#18A68A" d="M123.689,21.565c21.258,12.406,31.362,35.521,27.708,59.33c-2.265,14.754-13.245,36.623-39.546,44.879
		c3.693,0.574,9.036,0.839,13.483,0.176c25.77-14.787,32.835-39.033,32.316-56.735c-0.61-20.792-11.897-41.234-31.259-52.328
		C92.862-2.328,51.895,13.08,37.682,45.987c3.43-3.355,7.238-6.316,11.353-8.845C66.171,13.843,98.667,6.962,123.689,21.565"/>
	<path fill="#18A68A" d="M94.174,48.473c2.756-2.392,7.194-5.523,10.321-7.016c-2.171-0.932-4.387-1.75-6.653-2.399
		c-4.571,2.876-8.645,6.27-12.201,10.045C88.446,48.709,91.295,48.5,94.174,48.473"/>
	<path fill="#18A68A" d="M63.901,56.489c1.809-6.779,4.808-13.083,8.792-18.641c-2.63,0.491-5.229,1.156-7.769,2.027
		c-3.627,6.281-6.169,13.25-7.438,20.651C59.543,59.063,61.68,57.708,63.901,56.489"/>
	<path fill="#18A68A" d="M32.332,69.874c-0.118,6.512,0.766,12.992,2.615,19.191c1.064-2.646,2.303-5.222,3.717-7.707
		c-1.376-7.548-1.211-15.387,0.536-23.042C35.373,63.191,33.19,67.866,32.332,69.874"/>
	<path fill="#18A68A" d="M54.157,42.56c21.373-12.208,46.44-9.401,65.234,5.668c11.647,9.336,25.096,29.784,19.096,56.686
		c2.344-2.912,5.243-7.404,6.895-11.588c0.075-29.708-17.388-47.951-32.977-56.353c-18.315-9.868-41.662-10.314-60.949,0.906
		c-33.403,19.43-40.545,62.613-19.151,91.375c-1.192-4.646-1.852-9.428-1.986-14.254C18.709,88.511,29.001,56.927,54.157,42.56"/>
	<path fill="#18A68A" d="M56.383,73.691c0.204,5.399,1.105,10.62,2.599,15.59c1.062-2.629,2.305-5.202,3.721-7.705
		c-0.692-3.584-1.186-8.991-0.915-12.446C59.896,70.543,58.078,72.053,56.383,73.691"/>
	<path fill="#18A68A" d="M54.509,111.798c-4.967-4.955-8.926-10.702-11.748-16.935c-0.892,2.523-1.613,5.108-2.13,7.743
		c3.625,6.28,8.393,11.968,14.166,16.769C54.559,116.86,54.453,114.333,54.509,111.798"/>
	<path fill="#18A68A" d="M68.243,153.162c-1.761-2.245-3.37-4.605-4.814-7.071c-7.227-2.584-13.933-6.644-19.687-11.987
		c2.306,5.751,5.263,9.979,6.572,11.728C55.897,149.19,61.949,151.664,68.243,153.162"/>
	<path fill="#18A68A" d="M37.572,113.272c0.115-24.613,15.079-44.919,37.529-53.661c13.908-5.416,38.336-6.84,58.636,11.809
		c-1.35-3.486-3.789-8.246-6.59-11.766c-25.69-14.921-50.221-8.92-65.291,0.382C44.154,70.963,32.095,90.958,32.17,113.272
		c0.123,38.642,33.95,66.419,69.558,62.272c-4.619-1.29-9.091-3.109-13.337-5.406C59.644,166.945,37.438,142.244,37.572,113.272"/>
	<path fill="#18A68A" d="M64.397,119.949c0.279,2.345,0.678,4.674,1.249,6.961c4.776,2.521,9.751,4.353,14.8,5.543
		c-1.743-2.232-3.351-4.594-4.812-7.073C72.184,124.187,67.254,121.91,64.397,119.949"/>
	<path fill="#18A68A" d="M82.812,155.011c7.252,0,14.561-1.286,21.604-3.885c-2.294-1.049-4.535-2.223-6.704-3.537
		c-6.776,1.822-13.73,2.378-20.539,1.706C78.913,151.329,80.788,153.246,82.812,155.011"/>
	<path fill="#18A68A" d="M111.645,168.065c6.136,0.878,11.275,0.431,13.442,0.17c5.702-3.153,10.87-7.159,15.312-11.858
		c-2.824,0.399-5.674,0.614-8.53,0.634C126.02,161.977,119.149,165.753,111.645,168.065"/>
	<path fill="#18A68A" d="M90.52,162.992c-21.258-12.406-31.361-35.519-27.708-59.33c2.264-14.752,13.245-36.622,39.546-44.878
		c-3.693-0.573-9.036-0.839-13.483-0.177c-25.77,14.788-32.835,39.034-32.315,56.735c0.611,20.792,11.897,41.235,31.26,52.329
		c33.525,19.213,74.496,3.807,88.709-29.102c-3.43,3.354-7.238,6.317-11.351,8.845C148.04,170.716,115.543,177.596,90.52,162.992"/>
	<path fill="#18A68A" d="M120.036,136.082c-2.757,2.393-7.194,5.523-10.32,7.016c2.169,0.934,4.385,1.755,6.653,2.401
		c4.571-2.877,8.645-6.267,12.199-10.046C125.765,135.847,122.914,136.058,120.036,136.082"/>
	<path fill="#18A68A" d="M150.309,128.068c-1.809,6.78-4.809,13.081-8.793,18.641c2.633-0.489,5.229-1.155,7.771-2.026
		c3.625-6.281,6.167-13.252,7.436-20.652C154.667,125.494,152.532,126.848,150.309,128.068"/>
	<path fill="#18A68A" d="M181.877,114.685c0.119-6.516-0.765-12.991-2.614-19.191c-1.065,2.646-2.304,5.222-3.717,7.706
		c1.375,7.548,1.211,15.387-0.537,23.042C178.837,121.367,181.019,116.69,181.877,114.685"/>
	<path fill="#18A68A" d="M160.052,141.998c-21.372,12.208-46.44,9.401-65.236-5.668c-11.646-9.339-25.092-29.782-19.092-56.688
		c-2.345,2.912-5.244,7.406-6.895,11.589c-0.077,29.709,17.387,47.954,32.976,56.354c18.314,9.864,41.659,10.311,60.948-0.909
		c33.404-19.429,40.546-62.613,19.153-91.373c1.192,4.646,1.85,9.427,1.983,14.251C195.5,96.047,185.208,127.63,160.052,141.998"/>
	<path fill="#18A68A" d="M157.828,110.867c-0.206-5.399-1.107-10.622-2.601-15.59c-1.062,2.626-2.303,5.199-3.723,7.706
		c0.694,3.584,1.188,8.989,0.919,12.445C154.314,114.015,156.131,112.505,157.828,110.867"/>
	<path fill="#18A68A" d="M159.7,72.759c4.968,4.956,8.927,10.703,11.75,16.934c0.89-2.523,1.611-5.108,2.13-7.741
		c-3.627-6.281-8.395-11.969-14.167-16.766C159.65,67.695,159.757,70.224,159.7,72.759"/>
	<path fill="#18A68A" d="M145.967,31.395c1.76,2.246,3.37,4.605,4.815,7.07c7.225,2.585,13.931,6.646,19.686,11.989
		c-2.306-5.752-5.266-9.98-6.572-11.726C158.313,35.368,152.261,32.893,145.967,31.395"/>
	<path fill="#18A68A" d="M176.637,71.285c-0.114,24.61-15.079,44.919-37.528,53.661c-13.908,5.415-38.337,6.84-58.639-11.809
		c1.354,3.486,3.793,8.245,6.592,11.765c25.688,14.923,50.22,8.921,65.291-0.38c17.702-10.927,29.762-30.924,29.688-53.237
		c-0.127-38.642-33.955-66.422-69.558-62.274c4.619,1.292,9.09,3.112,13.335,5.409C154.566,17.61,176.772,42.314,176.637,71.285"/>
</g>
</svg>
